# MagicaVoxel @ Ephtracy

# group
o 

# material
mtllib Multi second jab-0.mtl
usemtl palette

# normals
vn -1 0 0
vn 1 0 0
vn 0 0 1
vn 0 0 -1
vn 0 -1 0
vn 0 1 0

# texcoords
vt 0.0292969 0.5
vt 0.0605469 0.5
vt 0.0644531 0.5
vt 0.728516 0.5
vt 0.841797 0.5
vt 0.857422 0.5
vt 0.861328 0.5
vt 0.994141 0.5

# verts
v -1.5 0 1.9
v -1.5 0 -1.9
v -1.5 0.2 1.9
v -1.5 0.2 -1.9
v -1.4 0 2
v -1.4 0 1.9
v -1.4 0 -1.9
v -1.4 0 -2
v -1.4 0.2 2
v -1.4 0.2 1.9
v -1.4 0.2 -1.9
v -1.4 0.2 -2
v 1.4 0 2
v 1.4 0 1.9
v 1.4 0 -1.9
v 1.4 0 -2
v 1.4 0.2 2
v 1.4 0.2 1.9
v 1.4 0.2 -1.9
v 1.4 0.2 -2
v 1.5 0 1.9
v 1.5 0 -1.9
v 1.5 0.2 1.9
v 1.5 0.2 -1.9
v -1.4 0 2
v -1.4 0.2 2
v 1.4 0 2
v 1.4 0.2 2
v -1.5 0 1.9
v -1.5 0.2 1.9
v -1.4 0 1.9
v -1.4 0.2 1.9
v 1.4 0 1.9
v 1.4 0.2 1.9
v 1.5 0 1.9
v 1.5 0.2 1.9
v -1.5 0 -1.9
v -1.5 0.2 -1.9
v -1.4 0 -1.9
v -1.4 0.2 -1.9
v 1.4 0 -1.9
v 1.4 0.2 -1.9
v 1.5 0 -1.9
v 1.5 0.2 -1.9
v -1.4 0 -2
v -1.4 0.2 -2
v 1.4 0 -2
v 1.4 0.2 -2
v -1.4 0 2
v 1.4 0 2
v -1.5 0 1.9
v -1.4 0 1.9
v 1.4 0 1.9
v 1.5 0 1.9
v -1.2 0 1.8
v 1.2 0 1.8
v -1.3 0 1.7
v -1.2 0 1.7
v -1.1 0 1.7
v 1.1 0 1.7
v 1.2 0 1.7
v 1.3 0 1.7
v -1.2 0 1.6
v -1.1 0 1.6
v -1 0 1.6
v -0.8 0 1.6
v -0.6 0 1.6
v -0.5 0 1.6
v -0.2 0 1.6
v 1 0 1.6
v 1.1 0 1.6
v 1.2 0 1.6
v -1.1 0 1.5
v -1 0 1.5
v -0.9 0 1.5
v -0.8 0 1.5
v -0.6 0 1.5
v -0.5 0 1.5
v -0.2 0 1.5
v -0.1 0 1.5
v 0 0 1.5
v 0.1 0 1.5
v 1 0 1.5
v 1.1 0 1.5
v -1 0 1.4
v -0.9 0 1.4
v -0.1 0 1.4
v 0 0 1.4
v 0.1 0 1.4
v -1 0 1.3
v -0.9 0 1.3
v -0.9 0 1.2
v -0.8 0 1.2
v -0.7 0 1.2
v -0.6 0 1.2
v -0.5 0 1.2
v -0.4 0 1.2
v -0.1 0 1.2
v 0 0 1.2
v -1 0 1.1
v -0.8 0 1.1
v -0.7 0 1.1
v -0.6 0 1.1
v -0.5 0 1.1
v -0.2 0 1.1
v -0.1 0 1.1
v -1 0 1
v -0.9 0 1
v -0.6 0 1
v -0.5 0 1
v -0.4 0 1
v -0.2 0 1
v -0.1 0 1
v 0 0 1
v 0.1 0 1
v -0.9 0 0.9
v -0.8 0 0.9
v 0 0 0.9
v 0.1 0 0.9
v -0.8 0 0.8
v -0.7 0 0.8
v -0.6 0 0.8
v -0.5 0 0.8
v -0.4 0 0.8
v -0.3 0 0.8
v -0.2 0 0.8
v -0.1 0 0.8
v -0.9 0 0.7
v -0.8 0 0.7
v -0.7 0 0.7
v -0.6 0 0.7
v -0.5 0 0.7
v -0.2 0 0.7
v -0.1 0 0.7
v -0.9 0 0.6
v -0.8 0 0.6
v -0.5 0 0.6
v -0.4 0 0.6
v -0.3 0 0.6
v -0.2 0 0.6
v -0.1 0 0.6
v 0.1 0 0.6
v 0.2 0 0.6
v -0.8 0 0.5
v -0.7 0 0.5
v -0.4 0 0.5
v -0.3 0 0.5
v -0.1 0 0.5
v 0.1 0 0.5
v 0.2 0 0.5
v -0.8 0 0.4
v -0.7 0 0.4
v -0.4 0 0.4
v -0.3 0 0.4
v -0.1 0 0.4
v 0 0 0.4
v 0.1 0 0.4
v -0.7 0 0.3
v -0.6 0 0.3
v -0.1 0 0.3
v 0 0 0.3
v 0.2 0 0.3
v 1 0 0.3
v -0.7 0 0.2
v -0.6 0 0.2
v -0.5 0 0.2
v -0.2 0 0.2
v -0.1 0 0.2
v 0 0 0.2
v 0.2 0 0.2
v 1 0 0.2
v -0.7 0 0.0999999
v -0.6 0 0.0999999
v -0.5 0 0.0999999
v -0.4 0 0.0999999
v -0.3 0 0.0999999
v -0.2 0 0.0999999
v -0.1 0 0.0999999
v 0 0 0.0999999
v 0.1 0 0.0999999
v -0.6 0 -2.38419e-007
v -0.5 0 -2.38419e-007
v -0.4 0 -2.38419e-007
v -0.3 0 -2.38419e-007
v -0.2 0 -2.38419e-007
v -0.1 0 -2.38419e-007
v 0.1 0 -2.38419e-007
v 0.2 0 -2.38419e-007
v -0.4 0 -0.1
v -0.3 0 -0.1
v -0.5 0 -0.3
v -0.4 0 -0.3
v -0.3 0 -0.3
v -0.2 0 -0.3
v 0.1 0 -0.3
v 0 0 -0.4
v 0.1 0 -0.4
v -0.1 0 -0.5
v 0 0 -0.5
v 0.1 0 -0.5
v -0.5 0 -0.6
v -0.4 0 -0.6
v -0.3 0 -0.6
v -0.2 0 -0.6
v -0.1 0 -0.6
v 0 0 -0.6
v 0.1 0 -0.6
v 0.2 0 -0.6
v -0.5 0 -0.7
v -0.4 0 -0.7
v -0.3 0 -0.7
v -0.2 0 -0.7
v 0.1 0 -0.7
v 0.2 0 -0.7
v 0.3 0 -0.7
v -0.6 0 -0.8
v -0.5 0 -0.8
v -0.2 0 -0.8
v -0.1 0 -0.8
v 0.2 0 -0.8
v 0.3 0 -0.8
v 0.4 0 -0.8
v -0.6 0 -0.9
v -0.4 0 -0.9
v -0.3 0 -0.9
v -0.1 0 -0.9
v 0.3 0 -0.9
v 0.4 0 -0.9
v 0.5 0 -0.9
v 0.4 0 -1
v 0.5 0 -1
v 0.6 0 -1
v 0.5 0 -1.1
v 0.6 0 -1.1
v 0.7 0 -1.1
v 0.6 0 -1.2
v 0.7 0 -1.2
v -1.1 0 -1.5
v -1 0 -1.5
v -0.4 0 -1.5
v -0.3 0 -1.5
v 1 0 -1.5
v 1.1 0 -1.5
v -1.2 0 -1.6
v -1.1 0 -1.6
v -1 0 -1.6
v 1 0 -1.6
v 1.1 0 -1.6
v 1.2 0 -1.6
v -1.3 0 -1.7
v -1.2 0 -1.7
v -1.1 0 -1.7
v 1.1 0 -1.7
v 1.2 0 -1.7
v 1.3 0 -1.7
v -1.2 0 -1.8
v 1.2 0 -1.8
v -1.5 0 -1.9
v -1.4 0 -1.9
v 1.4 0 -1.9
v 1.5 0 -1.9
v -1.4 0 -2
v 1.4 0 -2
v -1.4 0.2 2
v 1.4 0.2 2
v -1.5 0.2 1.9
v -1.4 0.2 1.9
v -1.3 0.2 1.9
v 1.3 0.2 1.9
v 1.4 0.2 1.9
v 1.5 0.2 1.9
v -1.4 0.2 1.8
v -1.3 0.2 1.8
v -1.2 0.2 1.8
v 1.2 0.2 1.8
v 1.3 0.2 1.8
v 1.4 0.2 1.8
v -1.3 0.2 1.7
v -1.2 0.2 1.7
v 1.2 0.2 1.7
v 1.3 0.2 1.7
v -1.2 0.2 -2.38419e-007
v 0.2 0.2 -2.38419e-007
v 0.5 0.2 -2.38419e-007
v 0.6 0.2 -2.38419e-007
v 1.1 0.2 -2.38419e-007
v 1.2 0.2 -2.38419e-007
v 0.1 0.2 -0.1
v 0.2 0.2 -0.1
v 0.3 0.2 -0.1
v 0.1 0.2 -0.2
v 0.2 0.2 -0.2
v 0.3 0.2 -0.2
v 0.5 0.2 -0.2
v 0.6 0.2 -0.2
v 0.7 0.2 -0.2
v 0.8 0.2 -0.2
v 0.9 0.2 -0.2
v 1 0.2 -0.2
v 1.1 0.2 -0.2
v 0.3 0.2 -0.3
v 0.4 0.2 -0.3
v 0.5 0.2 -0.3
v 0.6 0.2 -0.3
v 0.7 0.2 -0.3
v 0.8 0.2 -0.3
v 0.1 0.2 -0.4
v 0.2 0.2 -0.4
v 0.3 0.2 -0.4
v 0.4 0.2 -0.4
v 0.5 0.2 -0.4
v 0.6 0.2 -0.4
v 0.7 0.2 -0.4
v 0.8 0.2 -0.4
v 0.9 0.2 -0.4
v 1 0.2 -0.4
v 0.2 0.2 -0.5
v 0.3 0.2 -0.5
v 0.4 0.2 -0.5
v 0.5 0.2 -0.5
v 0.6 0.2 -0.5
v 0.7 0.2 -0.5
v -0.5 0.2 -0.6
v 0.1 0.2 -0.6
v 0.3 0.2 -0.6
v 0.4 0.2 -0.6
v 0.5 0.2 -0.6
v 0.6 0.2 -0.6
v 0.7 0.2 -0.6
v 0.8 0.2 -0.6
v 0.9 0.2 -0.6
v 1 0.2 -0.6
v -0.5 0.2 -0.7
v 0.1 0.2 -0.7
v 0.3 0.2 -0.7
v 0.4 0.2 -0.7
v 0.5 0.2 -0.7
v 0.6 0.2 -0.7
v 0.7 0.2 -0.7
v 0.8 0.2 -0.7
v 0.9 0.2 -0.7
v 1 0.2 -0.7
v 0.2 0.2 -0.8
v 0.3 0.2 -0.8
v 0.4 0.2 -0.8
v 0.5 0.2 -0.8
v 0.6 0.2 -0.8
v 0.7 0.2 -0.8
v 0.8 0.2 -0.8
v 0.9 0.2 -0.8
v 0.1 0.2 -0.9
v 0.2 0.2 -0.9
v 0.6 0.2 -0.9
v 0.7 0.2 -0.9
v 0.5 0.2 -1
v 0.6 0.2 -1
v 0.7 0.2 -1
v 0.8 0.2 -1
v 0.2 0.2 -1.1
v 0.5 0.2 -1.1
v 0.2 0.2 -1.2
v 0.3 0.2 -1.2
v 0.7 0.2 -1.2
v 0.8 0.2 -1.2
v 1 0.2 -1.2
v 0.2 0.2 -1.3
v 0.3 0.2 -1.3
v 0.4 0.2 -1.3
v 0.5 0.2 -1.3
v 0.7 0.2 -1.3
v 0.9 0.2 -1.3
v 1 0.2 -1.3
v 0.1 0.2 -1.4
v 0.2 0.2 -1.4
v 0.3 0.2 -1.4
v 0.4 0.2 -1.4
v 0.5 0.2 -1.4
v 0.8 0.2 -1.4
v 0.9 0.2 -1.4
v 1 0.2 -1.4
v 0 0.2 -1.5
v 0.1 0.2 -1.5
v 0.2 0.2 -1.5
v 0.7 0.2 -1.5
v 0.8 0.2 -1.5
v 0.9 0.2 -1.5
v 1 0.2 -1.5
v 1.1 0.2 -1.5
v -1.2 0.2 -1.6
v -1.1 0.2 -1.6
v -0.1 0.2 -1.6
v 0 0.2 -1.6
v 0.1 0.2 -1.6
v 1 0.2 -1.6
v 1.1 0.2 -1.6
v 1.2 0.2 -1.6
v -1.3 0.2 -1.7
v -1.2 0.2 -1.7
v -1.1 0.2 -1.7
v -0.1 0.2 -1.7
v 0 0.2 -1.7
v 1.1 0.2 -1.7
v 1.2 0.2 -1.7
v 1.3 0.2 -1.7
v -1.4 0.2 -1.8
v -1.3 0.2 -1.8
v -1.2 0.2 -1.8
v 1.2 0.2 -1.8
v 1.3 0.2 -1.8
v 1.4 0.2 -1.8
v -1.5 0.2 -1.9
v -1.4 0.2 -1.9
v -1.3 0.2 -1.9
v 1.3 0.2 -1.9
v 1.4 0.2 -1.9
v 1.5 0.2 -1.9
v -1.4 0.2 -2
v 1.4 0.2 -2

# faces
f 3/8/1 2/8/1 1/8/1
f 4/8/1 2/8/1 3/8/1
f 9/8/1 6/8/1 5/8/1
f 10/8/1 6/8/1 9/8/1
f 11/8/1 8/8/1 7/8/1
f 12/8/1 8/8/1 11/8/1
f 13/8/2 14/8/2 17/8/2
f 17/8/2 14/8/2 18/8/2
f 15/8/2 16/8/2 19/8/2
f 19/8/2 16/8/2 20/8/2
f 21/8/2 22/8/2 23/8/2
f 23/8/2 22/8/2 24/8/2
f 27/8/3 26/8/3 25/8/3
f 28/8/3 26/8/3 27/8/3
f 31/8/3 30/8/3 29/8/3
f 32/8/3 30/8/3 31/8/3
f 35/8/3 34/8/3 33/8/3
f 36/8/3 34/8/3 35/8/3
f 37/8/4 38/8/4 39/8/4
f 39/8/4 38/8/4 40/8/4
f 41/8/4 42/8/4 43/8/4
f 43/8/4 42/8/4 44/8/4
f 45/8/4 46/8/4 47/8/4
f 47/8/4 46/8/4 48/8/4
f 52/8/5 50/8/5 49/8/5
f 53/8/5 50/8/5 52/8/5
f 55/8/5 52/8/5 51/8/5
f 55/8/5 54/8/5 53/8/5
f 55/8/5 53/8/5 52/8/5
f 56/8/5 54/8/5 55/8/5
f 57/8/5 55/8/5 51/8/5
f 58/3/5 56/3/5 55/3/5
f 58/8/5 55/8/5 57/8/5
f 59/3/5 56/3/5 58/3/5
f 60/3/5 56/3/5 59/3/5
f 61/8/5 54/8/5 56/8/5
f 61/3/5 56/3/5 60/3/5
f 62/8/5 54/8/5 61/8/5
f 63/3/5 58/3/5 57/3/5
f 63/3/5 59/3/5 58/3/5
f 64/8/5 60/8/5 59/8/5
f 64/3/5 59/3/5 63/3/5
f 65/8/5 60/8/5 64/8/5
f 66/8/5 60/8/5 65/8/5
f 67/8/5 60/8/5 66/8/5
f 68/8/5 60/8/5 67/8/5
f 69/8/5 60/8/5 68/8/5
f 70/8/5 60/8/5 69/8/5
f 71/3/5 62/3/5 61/3/5
f 71/8/5 60/8/5 70/8/5
f 71/3/5 61/3/5 60/3/5
f 72/3/5 62/3/5 71/3/5
f 73/8/5 64/8/5 63/8/5
f 73/8/5 65/8/5 64/8/5
f 74/4/5 66/4/5 65/4/5
f 74/8/5 65/8/5 73/8/5
f 75/4/5 66/4/5 74/4/5
f 76/6/5 67/6/5 66/6/5
f 76/4/5 66/4/5 75/4/5
f 77/4/5 68/4/5 67/4/5
f 77/6/5 67/6/5 76/6/5
f 78/6/5 69/6/5 68/6/5
f 78/4/5 68/4/5 77/4/5
f 79/4/5 70/4/5 69/4/5
f 79/6/5 69/6/5 78/6/5
f 80/4/5 70/4/5 79/4/5
f 81/4/5 70/4/5 80/4/5
f 82/4/5 70/4/5 81/4/5
f 83/8/5 72/8/5 71/8/5
f 83/4/5 70/4/5 82/4/5
f 83/8/5 71/8/5 70/8/5
f 84/8/5 72/8/5 83/8/5
f 85/4/5 75/4/5 74/4/5
f 85/4/5 74/4/5 73/4/5
f 86/6/5 78/6/5 77/6/5
f 86/4/5 75/4/5 85/4/5
f 86/6/5 77/6/5 76/6/5
f 86/6/5 76/6/5 75/6/5
f 86/6/5 80/6/5 79/6/5
f 86/6/5 79/6/5 78/6/5
f 87/4/5 81/4/5 80/4/5
f 87/6/5 80/6/5 86/6/5
f 88/6/5 82/6/5 81/6/5
f 88/4/5 81/4/5 87/4/5
f 89/4/5 83/4/5 82/4/5
f 89/6/5 82/6/5 88/6/5
f 89/4/5 84/4/5 83/4/5
f 90/4/5 85/4/5 73/4/5
f 90/6/5 88/6/5 87/6/5
f 90/6/5 87/6/5 86/6/5
f 90/6/5 86/6/5 85/6/5
f 91/6/5 88/6/5 90/6/5
f 92/4/5 91/4/5 90/4/5
f 92/6/5 88/6/5 91/6/5
f 93/6/5 88/6/5 92/6/5
f 94/6/5 88/6/5 93/6/5
f 95/6/5 88/6/5 94/6/5
f 96/6/5 88/6/5 95/6/5
f 97/6/5 88/6/5 96/6/5
f 98/6/5 88/6/5 97/6/5
f 99/4/5 89/4/5 88/4/5
f 99/6/5 88/6/5 98/6/5
f 100/4/5 90/4/5 73/4/5
f 100/4/5 92/4/5 90/4/5
f 100/4/5 93/4/5 92/4/5
f 101/6/5 94/6/5 93/6/5
f 101/4/5 93/4/5 100/4/5
f 102/4/5 95/4/5 94/4/5
f 102/6/5 94/6/5 101/6/5
f 103/6/5 96/6/5 95/6/5
f 103/4/5 95/4/5 102/4/5
f 104/4/5 97/4/5 96/4/5
f 104/6/5 96/6/5 103/6/5
f 105/6/5 98/6/5 97/6/5
f 106/4/5 99/4/5 98/4/5
f 106/6/5 98/6/5 105/6/5
f 107/4/5 100/4/5 73/4/5
f 107/6/5 101/6/5 100/6/5
f 108/6/5 101/6/5 107/6/5
f 109/4/5 103/4/5 102/4/5
f 109/4/5 102/4/5 101/4/5
f 109/4/5 104/4/5 103/4/5
f 110/4/5 97/4/5 104/4/5
f 110/4/5 104/4/5 109/4/5
f 111/6/5 105/6/5 97/6/5
f 111/4/5 97/4/5 110/4/5
f 112/4/5 106/4/5 105/4/5
f 112/6/5 105/6/5 111/6/5
f 113/4/5 99/4/5 106/4/5
f 113/4/5 106/4/5 112/4/5
f 114/4/5 89/4/5 99/4/5
f 114/4/5 99/4/5 113/4/5
f 115/4/5 84/4/5 89/4/5
f 115/4/5 89/4/5 114/4/5
f 116/6/5 101/6/5 108/6/5
f 116/4/5 108/4/5 107/4/5
f 117/4/5 109/4/5 101/4/5
f 117/6/5 101/6/5 116/6/5
f 118/4/5 114/4/5 113/4/5
f 118/6/5 115/6/5 114/6/5
f 119/4/5 84/4/5 115/4/5
f 119/6/5 115/6/5 118/6/5
f 120/4/5 109/4/5 117/4/5
f 120/4/5 117/4/5 116/4/5
f 121/4/5 109/4/5 120/4/5
f 122/1/5 110/1/5 109/1/5
f 122/4/5 109/4/5 121/4/5
f 123/4/5 112/4/5 111/4/5
f 123/1/5 110/1/5 122/1/5
f 123/4/5 111/4/5 110/4/5
f 124/4/5 112/4/5 123/4/5
f 125/4/5 112/4/5 124/4/5
f 126/1/5 113/1/5 112/1/5
f 126/4/5 112/4/5 125/4/5
f 127/4/5 118/4/5 113/4/5
f 127/1/5 113/1/5 126/1/5
f 127/4/5 119/4/5 118/4/5
f 128/4/5 116/4/5 107/4/5
f 128/4/5 120/4/5 116/4/5
f 129/6/5 121/6/5 120/6/5
f 129/4/5 120/4/5 128/4/5
f 130/4/5 122/4/5 121/4/5
f 130/6/5 121/6/5 129/6/5
f 131/6/5 123/6/5 122/6/5
f 131/4/5 122/4/5 130/4/5
f 132/1/5 124/1/5 123/1/5
f 132/6/5 123/6/5 131/6/5
f 133/1/5 126/1/5 125/1/5
f 133/4/5 127/4/5 126/4/5
f 134/4/5 119/4/5 127/4/5
f 134/4/5 127/4/5 133/4/5
f 135/4/5 128/4/5 107/4/5
f 135/6/5 129/6/5 128/6/5
f 136/4/5 132/4/5 131/4/5
f 136/6/5 129/6/5 135/6/5
f 136/4/5 131/4/5 130/4/5
f 136/4/5 130/4/5 129/4/5
f 137/1/5 124/1/5 132/1/5
f 137/4/5 132/4/5 136/4/5
f 138/4/5 125/4/5 124/4/5
f 138/1/5 124/1/5 137/1/5
f 139/1/5 133/1/5 125/1/5
f 139/4/5 125/4/5 138/4/5
f 140/6/5 134/6/5 133/6/5
f 140/1/5 133/1/5 139/1/5
f 141/4/5 119/4/5 134/4/5
f 141/6/5 134/6/5 140/6/5
f 142/4/5 84/4/5 119/4/5
f 142/4/5 119/4/5 141/4/5
f 143/4/5 84/4/5 142/4/5
f 144/4/5 138/4/5 137/4/5
f 144/4/5 137/4/5 136/4/5
f 144/4/5 136/4/5 135/4/5
f 145/4/5 138/4/5 144/4/5
f 146/1/5 139/1/5 138/1/5
f 146/4/5 138/4/5 145/4/5
f 147/4/5 141/4/5 140/4/5
f 147/1/5 139/1/5 146/1/5
f 147/4/5 140/4/5 139/4/5
f 147/4/5 142/4/5 141/4/5
f 148/4/5 142/4/5 147/4/5
f 149/6/5 143/6/5 142/6/5
f 149/4/5 142/4/5 148/4/5
f 150/4/5 84/4/5 143/4/5
f 150/6/5 143/6/5 149/6/5
f 151/4/5 144/4/5 135/4/5
f 151/6/5 145/6/5 144/6/5
f 152/4/5 146/4/5 145/4/5
f 152/6/5 145/6/5 151/6/5
f 153/6/5 147/6/5 146/6/5
f 153/4/5 146/4/5 152/4/5
f 154/4/5 148/4/5 147/4/5
f 154/6/5 147/6/5 153/6/5
f 155/6/5 149/6/5 148/6/5
f 155/4/5 148/4/5 154/4/5
f 156/6/5 149/6/5 155/6/5
f 157/5/5 150/5/5 149/5/5
f 157/6/5 149/6/5 156/6/5
f 158/4/5 153/4/5 152/4/5
f 158/4/5 152/4/5 151/4/5
f 159/4/5 153/4/5 158/4/5
f 160/4/5 156/4/5 155/4/5
f 160/4/5 155/4/5 154/4/5
f 161/5/5 157/5/5 156/5/5
f 161/4/5 156/4/5 160/4/5
f 162/5/5 150/5/5 157/5/5
f 162/5/5 157/5/5 161/5/5
f 162/4/5 84/4/5 150/4/5
f 163/4/5 84/4/5 162/4/5
f 164/4/5 158/4/5 151/4/5
f 164/6/5 159/6/5 158/6/5
f 165/4/5 153/4/5 159/4/5
f 165/6/5 159/6/5 164/6/5
f 166/4/5 153/4/5 165/4/5
f 167/4/5 160/4/5 154/4/5
f 168/5/5 161/5/5 160/5/5
f 168/4/5 160/4/5 167/4/5
f 168/5/5 163/5/5 162/5/5
f 168/5/5 162/5/5 161/5/5
f 169/5/5 163/5/5 168/5/5
f 170/5/5 163/5/5 169/5/5
f 171/4/5 84/4/5 163/4/5
f 171/5/5 163/5/5 170/5/5
f 172/4/5 164/4/5 151/4/5
f 172/1/5 166/1/5 165/1/5
f 172/1/5 165/1/5 164/1/5
f 173/1/5 166/1/5 172/1/5
f 174/4/5 153/4/5 166/4/5
f 174/1/5 166/1/5 173/1/5
f 175/1/5 154/1/5 153/1/5
f 175/4/5 153/4/5 174/4/5
f 176/4/5 167/4/5 154/4/5
f 176/1/5 154/1/5 175/1/5
f 177/1/5 169/1/5 168/1/5
f 177/4/5 167/4/5 176/4/5
f 177/1/5 168/1/5 167/1/5
f 178/1/5 169/1/5 177/1/5
f 179/5/5 170/5/5 169/5/5
f 179/1/5 169/1/5 178/1/5
f 180/5/5 170/5/5 179/5/5
f 181/6/5 174/6/5 173/6/5
f 181/4/5 173/4/5 172/4/5
f 182/1/5 175/1/5 174/1/5
f 182/6/5 174/6/5 181/6/5
f 183/6/5 176/6/5 175/6/5
f 183/1/5 175/1/5 182/1/5
f 184/1/5 177/1/5 176/1/5
f 184/6/5 176/6/5 183/6/5
f 185/6/5 178/6/5 177/6/5
f 185/1/5 177/1/5 184/1/5
f 186/4/5 180/4/5 179/4/5
f 186/6/5 178/6/5 185/6/5
f 186/4/5 179/4/5 178/4/5
f 187/5/5 170/5/5 180/5/5
f 187/4/5 180/4/5 186/4/5
f 188/4/5 171/4/5 170/4/5
f 188/5/5 170/5/5 187/5/5
f 189/6/5 184/6/5 183/6/5
f 189/4/5 182/4/5 181/4/5
f 189/4/5 183/4/5 182/4/5
f 190/4/5 186/4/5 185/4/5
f 190/6/5 184/6/5 189/6/5
f 190/4/5 185/4/5 184/4/5
f 190/4/5 187/4/5 186/4/5
f 190/4/5 188/4/5 187/4/5
f 191/4/5 189/4/5 181/4/5
f 192/1/5 190/1/5 189/1/5
f 192/4/5 189/4/5 191/4/5
f 193/4/5 188/4/5 190/4/5
f 193/1/5 190/1/5 192/1/5
f 194/4/5 188/4/5 193/4/5
f 195/4/5 188/4/5 194/4/5
f 196/5/5 195/5/5 194/5/5
f 197/4/5 188/4/5 195/4/5
f 197/5/5 195/5/5 196/5/5
f 198/5/5 196/5/5 194/5/5
f 199/4/5 197/4/5 196/4/5
f 199/5/5 196/5/5 198/5/5
f 200/4/5 188/4/5 197/4/5
f 200/4/5 197/4/5 199/4/5
f 201/2/5 192/2/5 191/2/5
f 201/4/5 191/4/5 181/4/5
f 201/2/5 193/2/5 192/2/5
f 201/2/5 194/2/5 193/2/5
f 202/2/5 194/2/5 201/2/5
f 203/2/5 194/2/5 202/2/5
f 204/5/5 198/5/5 194/5/5
f 204/2/5 194/2/5 203/2/5
f 205/4/5 199/4/5 198/4/5
f 205/5/5 198/5/5 204/5/5
f 206/5/5 200/5/5 199/5/5
f 206/4/5 199/4/5 205/4/5
f 207/4/5 188/4/5 200/4/5
f 207/5/5 200/5/5 206/5/5
f 208/4/5 171/4/5 188/4/5
f 208/4/5 188/4/5 207/4/5
f 209/4/5 201/4/5 181/4/5
f 209/4/5 202/4/5 201/4/5
f 210/5/5 203/5/5 202/5/5
f 210/4/5 202/4/5 209/4/5
f 211/4/5 206/4/5 205/4/5
f 211/5/5 203/5/5 210/5/5
f 211/4/5 207/4/5 206/4/5
f 211/4/5 205/4/5 204/4/5
f 211/4/5 204/4/5 203/4/5
f 212/4/5 207/4/5 211/4/5
f 213/5/5 208/5/5 207/5/5
f 213/4/5 207/4/5 212/4/5
f 214/4/5 171/4/5 208/4/5
f 214/5/5 208/5/5 213/5/5
f 215/4/5 171/4/5 214/4/5
f 216/4/5 181/4/5 172/4/5
f 216/4/5 209/4/5 181/4/5
f 217/5/5 210/5/5 209/5/5
f 217/4/5 209/4/5 216/4/5
f 217/5/5 212/5/5 211/5/5
f 217/5/5 211/5/5 210/5/5
f 218/4/5 214/4/5 213/4/5
f 218/5/5 212/5/5 217/5/5
f 218/4/5 213/4/5 212/4/5
f 219/4/5 214/4/5 218/4/5
f 220/5/5 215/5/5 214/5/5
f 220/4/5 214/4/5 219/4/5
f 221/4/5 171/4/5 215/4/5
f 221/5/5 215/5/5 220/5/5
f 222/4/5 171/4/5 221/4/5
f 223/4/5 216/4/5 172/4/5
f 223/5/5 217/5/5 216/5/5
f 223/5/5 219/5/5 218/5/5
f 223/5/5 218/5/5 217/5/5
f 224/5/5 219/5/5 223/5/5
f 225/5/5 219/5/5 224/5/5
f 226/4/5 220/4/5 219/4/5
f 226/5/5 219/5/5 225/5/5
f 226/4/5 221/4/5 220/4/5
f 227/5/5 222/5/5 221/5/5
f 227/4/5 221/4/5 226/4/5
f 228/4/5 171/4/5 222/4/5
f 228/5/5 222/5/5 227/5/5
f 229/4/5 171/4/5 228/4/5
f 230/4/5 227/4/5 226/4/5
f 230/4/5 226/4/5 225/4/5
f 230/5/5 229/5/5 228/5/5
f 230/4/5 228/4/5 227/4/5
f 231/4/5 171/4/5 229/4/5
f 231/5/5 229/5/5 230/5/5
f 232/4/5 171/4/5 231/4/5
f 233/4/5 231/4/5 230/4/5
f 233/5/5 232/5/5 231/5/5
f 234/4/5 171/4/5 232/4/5
f 234/5/5 232/5/5 233/5/5
f 235/4/5 171/4/5 234/4/5
f 236/4/5 234/4/5 233/4/5
f 236/5/5 235/5/5 234/5/5
f 237/4/5 171/4/5 235/4/5
f 237/5/5 235/5/5 236/5/5
f 238/4/5 151/4/5 135/4/5
f 238/8/5 73/8/5 63/8/5
f 238/4/5 223/4/5 172/4/5
f 238/4/5 107/4/5 73/4/5
f 238/4/5 135/4/5 107/4/5
f 238/4/5 224/4/5 223/4/5
f 238/4/5 172/4/5 151/4/5
f 239/4/5 224/4/5 238/4/5
f 240/5/5 225/5/5 224/5/5
f 240/4/5 224/4/5 239/4/5
f 241/4/5 230/4/5 225/4/5
f 241/5/5 225/5/5 240/5/5
f 241/4/5 237/4/5 236/4/5
f 241/4/5 236/4/5 233/4/5
f 241/4/5 233/4/5 230/4/5
f 242/4/5 171/4/5 237/4/5
f 242/4/5 237/4/5 241/4/5
f 242/4/5 84/4/5 171/4/5
f 243/8/5 72/8/5 84/8/5
f 243/4/5 84/4/5 242/4/5
f 244/3/5 63/3/5 57/3/5
f 244/8/5 238/8/5 63/8/5
f 244/8/5 239/8/5 238/8/5
f 245/8/5 239/8/5 244/8/5
f 246/4/5 241/4/5 240/4/5
f 246/8/5 239/8/5 245/8/5
f 246/4/5 240/4/5 239/4/5
f 246/4/5 242/4/5 241/4/5
f 247/8/5 243/8/5 242/8/5
f 247/4/5 242/4/5 246/4/5
f 248/8/5 72/8/5 243/8/5
f 248/8/5 243/8/5 247/8/5
f 249/3/5 62/3/5 72/3/5
f 249/8/5 72/8/5 248/8/5
f 250/8/5 57/8/5 51/8/5
f 250/3/5 245/3/5 244/3/5
f 250/3/5 244/3/5 57/3/5
f 251/3/5 245/3/5 250/3/5
f 252/8/5 247/8/5 246/8/5
f 252/3/5 245/3/5 251/3/5
f 252/8/5 246/8/5 245/8/5
f 252/8/5 248/8/5 247/8/5
f 253/3/5 249/3/5 248/3/5
f 253/8/5 248/8/5 252/8/5
f 254/3/5 62/3/5 249/3/5
f 254/3/5 249/3/5 253/3/5
f 255/8/5 54/8/5 62/8/5
f 255/3/5 62/3/5 254/3/5
f 256/8/5 251/8/5 250/8/5
f 256/3/5 253/3/5 252/3/5
f 256/3/5 254/3/5 253/3/5
f 256/3/5 252/3/5 251/3/5
f 257/8/5 255/8/5 254/8/5
f 257/3/5 254/3/5 256/3/5
f 258/8/5 256/8/5 250/8/5
f 258/8/5 250/8/5 51/8/5
f 258/8/5 257/8/5 256/8/5
f 259/8/5 257/8/5 258/8/5
f 260/8/5 54/8/5 255/8/5
f 260/8/5 257/8/5 259/8/5
f 260/8/5 255/8/5 257/8/5
f 261/8/5 54/8/5 260/8/5
f 262/8/5 260/8/5 259/8/5
f 263/8/5 260/8/5 262/8/5
f 264/8/6 265/8/6 267/8/6
f 267/8/6 265/8/6 268/8/6
f 268/8/6 265/8/6 269/8/6
f 269/8/6 265/8/6 270/8/6
f 266/8/6 267/8/6 272/8/6
f 267/8/6 268/8/6 272/8/6
f 268/3/6 269/3/6 273/3/6
f 272/8/6 268/8/6 273/8/6
f 273/3/6 269/3/6 274/3/6
f 274/3/6 269/3/6 275/3/6
f 270/8/6 271/8/6 276/8/6
f 275/3/6 269/3/6 276/3/6
f 269/8/6 270/8/6 276/8/6
f 276/8/6 271/8/6 277/8/6
f 273/3/6 274/3/6 278/3/6
f 272/3/6 273/3/6 278/3/6
f 274/8/6 275/8/6 279/8/6
f 278/3/6 274/3/6 279/3/6
f 276/3/6 277/3/6 280/3/6
f 279/8/6 275/8/6 280/8/6
f 275/3/6 276/3/6 280/3/6
f 280/3/6 277/3/6 281/3/6
f 278/8/6 279/8/6 282/8/6
f 279/8/6 280/8/6 282/8/6
f 280/8/6 281/8/6 282/8/6
f 282/8/6 281/8/6 283/8/6
f 283/8/6 281/8/6 284/8/6
f 284/8/6 281/8/6 285/8/6
f 285/8/6 281/8/6 286/8/6
f 286/8/6 281/8/6 287/8/6
f 282/4/6 283/4/6 288/4/6
f 283/7/6 284/7/6 289/7/6
f 288/4/6 283/4/6 289/4/6
f 289/7/6 284/7/6 290/7/6
f 282/4/6 288/4/6 291/4/6
f 288/7/6 289/7/6 291/7/6
f 289/4/6 290/4/6 292/4/6
f 291/7/6 289/7/6 292/7/6
f 290/7/6 284/7/6 293/7/6
f 292/4/6 290/4/6 293/4/6
f 284/4/6 285/4/6 294/4/6
f 293/7/6 284/7/6 294/7/6
f 285/7/6 286/7/6 295/7/6
f 294/4/6 285/4/6 295/4/6
f 295/7/6 286/7/6 296/7/6
f 296/7/6 286/7/6 297/7/6
f 297/7/6 286/7/6 298/7/6
f 298/7/6 286/7/6 299/7/6
f 286/4/6 287/4/6 300/4/6
f 299/7/6 286/7/6 300/7/6
f 291/4/6 292/4/6 301/4/6
f 292/4/6 293/4/6 301/4/6
f 293/4/6 294/4/6 301/4/6
f 301/4/6 294/4/6 302/4/6
f 294/7/6 295/7/6 303/7/6
f 302/4/6 294/4/6 303/4/6
f 295/4/6 296/4/6 304/4/6
f 303/7/6 295/7/6 304/7/6
f 296/1/6 297/1/6 305/1/6
f 304/4/6 296/4/6 305/4/6
f 297/4/6 298/4/6 306/4/6
f 305/1/6 297/1/6 306/1/6
f 282/4/6 291/4/6 307/4/6
f 291/4/6 301/4/6 307/4/6
f 307/4/6 301/4/6 308/4/6
f 301/7/6 302/7/6 309/7/6
f 308/4/6 301/4/6 309/4/6
f 302/4/6 303/4/6 310/4/6
f 309/7/6 302/7/6 310/7/6
f 303/1/6 304/1/6 311/1/6
f 310/4/6 303/4/6 311/4/6
f 304/4/6 305/4/6 312/4/6
f 311/1/6 304/1/6 312/1/6
f 305/7/6 306/7/6 313/7/6
f 312/4/6 305/4/6 313/4/6
f 306/4/6 298/4/6 314/4/6
f 313/7/6 306/7/6 314/7/6
f 298/7/6 299/7/6 315/7/6
f 314/4/6 298/4/6 315/4/6
f 299/4/6 300/4/6 316/4/6
f 315/7/6 299/7/6 316/7/6
f 307/5/6 308/5/6 317/5/6
f 308/4/6 309/4/6 317/4/6
f 309/4/6 310/4/6 317/4/6
f 317/4/6 310/4/6 318/4/6
f 310/7/6 311/7/6 319/7/6
f 318/4/6 310/4/6 319/4/6
f 311/4/6 312/4/6 320/4/6
f 319/7/6 311/7/6 320/7/6
f 312/1/6 313/1/6 321/1/6
f 320/4/6 312/4/6 321/4/6
f 314/4/6 315/4/6 322/4/6
f 321/1/6 313/1/6 322/1/6
f 313/4/6 314/4/6 322/4/6
f 315/4/6 316/4/6 322/4/6
f 282/4/6 307/4/6 323/4/6
f 317/5/6 318/5/6 324/5/6
f 323/4/6 307/4/6 324/4/6
f 307/5/6 317/5/6 324/5/6
f 320/4/6 321/4/6 325/4/6
f 324/5/6 318/5/6 325/5/6
f 319/4/6 320/4/6 325/4/6
f 318/4/6 319/4/6 325/4/6
f 325/4/6 321/4/6 326/4/6
f 326/4/6 321/4/6 327/4/6
f 321/7/6 322/7/6 328/7/6
f 327/4/6 321/4/6 328/4/6
f 322/4/6 316/4/6 329/4/6
f 328/7/6 322/7/6 329/7/6
f 329/4/6 316/4/6 330/4/6
f 330/4/6 316/4/6 331/4/6
f 316/4/6 300/4/6 332/4/6
f 331/4/6 316/4/6 332/4/6
f 323/5/6 324/5/6 333/5/6
f 282/4/6 323/4/6 333/4/6
f 324/5/6 325/5/6 333/5/6
f 325/5/6 326/5/6 333/5/6
f 333/5/6 326/5/6 334/5/6
f 334/5/6 326/5/6 335/5/6
f 326/7/6 327/7/6 336/7/6
f 335/5/6 326/5/6 336/5/6
f 327/4/6 328/4/6 337/4/6
f 336/7/6 327/7/6 337/7/6
f 328/1/6 329/1/6 338/1/6
f 337/4/6 328/4/6 338/4/6
f 329/4/6 330/4/6 339/4/6
f 338/1/6 329/1/6 339/1/6
f 330/1/6 331/1/6 340/1/6
f 339/4/6 330/4/6 340/4/6
f 331/7/6 332/7/6 341/7/6
f 340/1/6 331/1/6 341/1/6
f 332/4/6 300/4/6 342/4/6
f 341/7/6 332/7/6 342/7/6
f 334/5/6 335/5/6 343/5/6
f 335/4/6 336/4/6 344/4/6
f 343/5/6 335/5/6 344/5/6
f 336/1/6 337/1/6 345/1/6
f 344/4/6 336/4/6 345/4/6
f 337/7/6 338/7/6 346/7/6
f 345/1/6 337/1/6 346/1/6
f 338/1/6 339/1/6 347/1/6
f 346/7/6 338/7/6 347/7/6
f 339/7/6 340/7/6 348/7/6
f 347/1/6 339/1/6 348/1/6
f 340/1/6 341/1/6 349/1/6
f 348/7/6 340/7/6 349/7/6
f 341/4/6 342/4/6 350/4/6
f 349/1/6 341/1/6 350/1/6
f 334/5/6 343/5/6 351/5/6
f 333/4/6 334/4/6 351/4/6
f 346/4/6 347/4/6 352/4/6
f 351/5/6 343/5/6 352/5/6
f 345/4/6 346/4/6 352/4/6
f 344/4/6 345/4/6 352/4/6
f 343/4/6 344/4/6 352/4/6
f 347/7/6 348/7/6 353/7/6
f 352/4/6 347/4/6 353/4/6
f 348/4/6 349/4/6 354/4/6
f 353/7/6 348/7/6 354/7/6
f 349/4/6 350/4/6 354/4/6
f 351/4/6 352/4/6 355/4/6
f 352/4/6 353/4/6 355/4/6
f 353/1/6 354/1/6 356/1/6
f 355/4/6 353/4/6 356/4/6
f 354/4/6 350/4/6 357/4/6
f 356/1/6 354/1/6 357/1/6
f 357/4/6 350/4/6 358/4/6
f 351/4/6 355/4/6 359/4/6
f 355/2/6 356/2/6 360/2/6
f 359/4/6 355/4/6 360/4/6
f 356/2/6 357/2/6 360/2/6
f 357/2/6 358/2/6 360/2/6
f 351/4/6 359/4/6 361/4/6
f 359/5/6 360/5/6 361/5/6
f 361/5/6 360/5/6 362/5/6
f 360/2/6 358/2/6 363/2/6
f 358/4/6 350/4/6 364/4/6
f 363/2/6 358/2/6 364/2/6
f 342/4/6 300/4/6 365/4/6
f 364/4/6 350/4/6 365/4/6
f 350/4/6 342/4/6 365/4/6
f 361/4/6 362/4/6 366/4/6
f 351/4/6 361/4/6 366/4/6
f 362/5/6 360/5/6 367/5/6
f 366/4/6 362/4/6 367/4/6
f 367/5/6 360/5/6 368/5/6
f 360/2/6 363/2/6 369/2/6
f 368/5/6 360/5/6 369/5/6
f 363/5/6 364/5/6 370/5/6
f 369/2/6 363/2/6 370/2/6
f 364/5/6 365/5/6 370/5/6
f 370/5/6 365/5/6 371/5/6
f 365/4/6 300/4/6 372/4/6
f 371/5/6 365/5/6 372/5/6
f 351/4/6 366/4/6 373/4/6
f 333/4/6 351/4/6 373/4/6
f 366/5/6 367/5/6 374/5/6
f 373/4/6 366/4/6 374/4/6
f 367/4/6 368/4/6 375/4/6
f 374/5/6 367/5/6 375/5/6
f 368/5/6 369/5/6 376/5/6
f 375/4/6 368/4/6 376/4/6
f 369/4/6 370/4/6 377/4/6
f 376/5/6 369/5/6 377/5/6
f 370/5/6 371/5/6 378/5/6
f 371/4/6 372/4/6 379/4/6
f 378/5/6 371/5/6 379/5/6
f 372/4/6 300/4/6 380/4/6
f 379/4/6 372/4/6 380/4/6
f 333/4/6 373/4/6 381/4/6
f 373/5/6 374/5/6 382/5/6
f 381/4/6 373/4/6 382/4/6
f 374/4/6 375/4/6 383/4/6
f 382/5/6 374/5/6 383/5/6
f 375/4/6 376/4/6 383/4/6
f 376/4/6 377/4/6 383/4/6
f 370/5/6 378/5/6 384/5/6
f 383/4/6 377/4/6 384/4/6
f 377/4/6 370/4/6 384/4/6
f 378/4/6 379/4/6 385/4/6
f 384/5/6 378/5/6 385/5/6
f 379/5/6 380/5/6 386/5/6
f 385/4/6 379/4/6 386/4/6
f 380/4/6 300/4/6 387/4/6
f 386/5/6 380/5/6 387/5/6
f 300/4/6 287/4/6 388/4/6
f 387/4/6 300/4/6 388/4/6
f 278/8/6 282/8/6 389/8/6
f 333/4/6 381/4/6 389/4/6
f 282/4/6 333/4/6 389/4/6
f 389/4/6 381/4/6 390/4/6
f 390/4/6 381/4/6 391/4/6
f 381/5/6 382/5/6 392/5/6
f 391/4/6 381/4/6 392/4/6
f 386/4/6 387/4/6 393/4/6
f 392/5/6 382/5/6 393/5/6
f 383/4/6 384/4/6 393/4/6
f 382/4/6 383/4/6 393/4/6
f 384/4/6 385/4/6 393/4/6
f 385/4/6 386/4/6 393/4/6
f 387/5/6 388/5/6 394/5/6
f 393/4/6 387/4/6 394/4/6
f 388/4/6 287/4/6 395/4/6
f 394/5/6 388/5/6 395/5/6
f 287/8/6 281/8/6 396/8/6
f 395/4/6 287/4/6 396/4/6
f 272/3/6 278/3/6 397/3/6
f 389/8/6 390/8/6 397/8/6
f 278/8/6 389/8/6 397/8/6
f 397/8/6 390/8/6 398/8/6
f 390/4/6 391/4/6 399/4/6
f 398/8/6 390/8/6 399/8/6
f 391/5/6 392/5/6 400/5/6
f 399/4/6 391/4/6 400/4/6
f 393/4/6 394/4/6 401/4/6
f 400/5/6 392/5/6 401/5/6
f 394/4/6 395/4/6 401/4/6
f 392/4/6 393/4/6 401/4/6
f 395/8/6 396/8/6 402/8/6
f 401/4/6 395/4/6 402/4/6
f 396/8/6 281/8/6 403/8/6
f 402/8/6 396/8/6 403/8/6
f 281/3/6 277/3/6 404/3/6
f 403/8/6 281/8/6 404/8/6
f 266/8/6 272/8/6 405/8/6
f 272/3/6 397/3/6 405/3/6
f 397/3/6 398/3/6 405/3/6
f 405/3/6 398/3/6 406/3/6
f 401/8/6 402/8/6 407/8/6
f 406/3/6 398/3/6 407/3/6
f 402/8/6 403/8/6 407/8/6
f 399/8/6 400/8/6 407/8/6
f 400/8/6 401/8/6 407/8/6
f 398/8/6 399/8/6 407/8/6
f 403/3/6 404/3/6 408/3/6
f 407/8/6 403/8/6 408/8/6
f 404/3/6 277/3/6 409/3/6
f 408/3/6 404/3/6 409/3/6
f 277/8/6 271/8/6 410/8/6
f 409/3/6 277/3/6 410/3/6
f 405/8/6 406/8/6 411/8/6
f 266/8/6 405/8/6 411/8/6
f 411/8/6 406/8/6 412/8/6
f 408/3/6 409/3/6 413/3/6
f 412/8/6 406/8/6 413/8/6
f 407/3/6 408/3/6 413/3/6
f 406/3/6 407/3/6 413/3/6
f 409/8/6 410/8/6 414/8/6
f 413/3/6 409/3/6 414/3/6
f 410/8/6 271/8/6 415/8/6
f 414/8/6 410/8/6 415/8/6
f 415/8/6 271/8/6 416/8/6
f 413/8/6 414/8/6 417/8/6
f 414/8/6 415/8/6 417/8/6
f 412/8/6 413/8/6 417/8/6
f 417/8/6 415/8/6 418/8/6
