# MagicaVoxel @ Ephtracy

# group
o 

# material
mtllib Angel-0.mtl
usemtl palette

# normals
vn -1 0 0
vn 1 0 0
vn 0 0 1
vn 0 0 -1
vn 0 -1 0
vn 0 1 0

# texcoords
vt 0.00195313 0.5
vt 0.0292969 0.5
vt 0.0644531 0.5
vt 0.587891 0.5
vt 0.958984 0.5
vt 0.994141 0.5

# verts
v -1.5 0 1.9
v -1.5 0 -1.9
v -1.5 0.2 1.9
v -1.5 0.2 -1.9
v -1.4 0 2
v -1.4 0 1.9
v -1.4 0 -1.9
v -1.4 0 -2
v -1.4 0.2 2
v -1.4 0.2 1.9
v -1.4 0.2 -1.9
v -1.4 0.2 -2
v 1.4 0 2
v 1.4 0 1.9
v 1.4 0 -1.9
v 1.4 0 -2
v 1.4 0.2 2
v 1.4 0.2 1.9
v 1.4 0.2 -1.9
v 1.4 0.2 -2
v 1.5 0 1.9
v 1.5 0 -1.9
v 1.5 0.2 1.9
v 1.5 0.2 -1.9
v -1.4 0 2
v -1.4 0.2 2
v 1.4 0 2
v 1.4 0.2 2
v -1.5 0 1.9
v -1.5 0.2 1.9
v -1.4 0 1.9
v -1.4 0.2 1.9
v 1.4 0 1.9
v 1.4 0.2 1.9
v 1.5 0 1.9
v 1.5 0.2 1.9
v -1.5 0 -1.9
v -1.5 0.2 -1.9
v -1.4 0 -1.9
v -1.4 0.2 -1.9
v 1.4 0 -1.9
v 1.4 0.2 -1.9
v 1.5 0 -1.9
v 1.5 0.2 -1.9
v -1.4 0 -2
v -1.4 0.2 -2
v 1.4 0 -2
v 1.4 0.2 -2
v -1.4 0 2
v 1.4 0 2
v -1.5 0 1.9
v -1.4 0 1.9
v 1.4 0 1.9
v 1.5 0 1.9
v -1.2 0 1.8
v 1.2 0 1.8
v -1.3 0 1.7
v -1.2 0 1.7
v -1.1 0 1.7
v 1.1 0 1.7
v 1.2 0 1.7
v 1.3 0 1.7
v -1.2 0 1.6
v -1.1 0 1.6
v -1 0 1.6
v -0.6 0 1.6
v -0.1 0 1.6
v 0.1 0 1.6
v 0.6 0 1.6
v 1 0 1.6
v 1.1 0 1.6
v 1.2 0 1.6
v -1.1 0 1.5
v -1 0 1.5
v 1 0 1.5
v 1.1 0 1.5
v -0.6 0 1.4
v -0.4 0 1.4
v 0.4 0 1.4
v 0.6 0 1.4
v -0.5 0 1.1
v -0.4 0 1.1
v -0.1 0 1.1
v 0.1 0 1.1
v 0.4 0 1.1
v 0.5 0 1.1
v -0.6 0 1
v -0.5 0 1
v 0.5 0 1
v 0.6 0 1
v -0.6 0 0.4
v -0.5 0 0.4
v 0.5 0 0.4
v 0.6 0 0.4
v -0.6 0 -2.38419e-007
v -0.5 0 -2.38419e-007
v -0.4 0 -2.38419e-007
v 0.4 0 -2.38419e-007
v 0.5 0 -2.38419e-007
v 0.6 0 -2.38419e-007
v -0.7 0 -0.1
v -0.6 0 -0.1
v 0.6 0 -0.1
v 0.7 0 -0.1
v -0.9 0 -0.2
v -0.7 0 -0.2
v 0.7 0 -0.2
v 0.9 0 -0.2
v -1 0 -0.4
v -0.9 0 -0.4
v -0.5 0 -0.4
v -0.4 0 -0.4
v -0.2 0 -0.4
v 0.2 0 -0.4
v 0.4 0 -0.4
v 0.5 0 -0.4
v 0.9 0 -0.4
v 1 0 -0.4
v -1.1 0 -0.5
v -1 0 -0.5
v 1 0 -0.5
v 1.1 0 -0.5
v -0.7 0 -0.6
v -0.5 0 -0.6
v -0.3 0 -0.6
v -0.2 0 -0.6
v 0.2 0 -0.6
v 0.3 0 -0.6
v 0.5 0 -0.6
v 0.7 0 -0.6
v -0.8 0 -0.7
v -0.7 0 -0.7
v -0.4 0 -0.7
v -0.3 0 -0.7
v 0.3 0 -0.7
v 0.4 0 -0.7
v 0.7 0 -0.7
v 0.8 0 -0.7
v -0.9 0 -0.8
v -0.8 0 -0.8
v -0.5 0 -0.8
v -0.4 0 -0.8
v 0.4 0 -0.8
v 0.5 0 -0.8
v 0.8 0 -0.8
v 0.9 0 -0.8
v -1.1 0 -0.9
v -0.9 0 -0.9
v 0.9 0 -0.9
v 1.1 0 -0.9
v -0.5 0 -1.2
v -0.4 0 -1.2
v 0.4 0 -1.2
v 0.5 0 -1.2
v -0.4 0 -1.3
v -0.3 0 -1.3
v 0.3 0 -1.3
v 0.4 0 -1.3
v -0.3 0 -1.4
v 0.3 0 -1.4
v -1.1 0 -1.5
v -1 0 -1.5
v 1 0 -1.5
v 1.1 0 -1.5
v -1.2 0 -1.6
v -1.1 0 -1.6
v -1 0 -1.6
v 1 0 -1.6
v 1.1 0 -1.6
v 1.2 0 -1.6
v -1.3 0 -1.7
v -1.2 0 -1.7
v -1.1 0 -1.7
v 1.1 0 -1.7
v 1.2 0 -1.7
v 1.3 0 -1.7
v -1.2 0 -1.8
v 1.2 0 -1.8
v -1.5 0 -1.9
v -1.4 0 -1.9
v 1.4 0 -1.9
v 1.5 0 -1.9
v -1.4 0 -2
v 1.4 0 -2
v -1.4 0.2 2
v 1.4 0.2 2
v -1.5 0.2 1.9
v -1.4 0.2 1.9
v -1.3 0.2 1.9
v 1.3 0.2 1.9
v 1.4 0.2 1.9
v 1.5 0.2 1.9
v -1.4 0.2 1.8
v -1.3 0.2 1.8
v -1.2 0.2 1.8
v 1.2 0.2 1.8
v 1.3 0.2 1.8
v 1.4 0.2 1.8
v -1.3 0.2 1.7
v -1.2 0.2 1.7
v 1.2 0.2 1.7
v 1.3 0.2 1.7
v -1.2 0.2 -2.38419e-007
v -0.4 0.2 -2.38419e-007
v -0.1 0.2 -2.38419e-007
v 0.1 0.2 -2.38419e-007
v 0.4 0.2 -2.38419e-007
v 1.2 0.2 -2.38419e-007
v -0.4 0.2 -0.1
v -0.3 0.2 -0.1
v 0.3 0.2 -0.1
v 0.4 0.2 -0.1
v -0.3 0.2 -0.3
v -0.1 0.2 -0.3
v 0.1 0.2 -0.3
v 0.3 0.2 -0.3
v -0.4 0.2 -0.4
v -0.3 0.2 -0.4
v 0.3 0.2 -0.4
v 0.4 0.2 -0.4
v -0.4 0.2 -0.7
v -0.3 0.2 -0.7
v 0.3 0.2 -0.7
v 0.4 0.2 -0.7
v -0.4 0.2 -0.8
v -0.3 0.2 -0.8
v 0.3 0.2 -0.8
v 0.4 0.2 -0.8
v -0.5 0.2 -0.9
v -0.4 0.2 -0.9
v -0.3 0.2 -0.9
v -0.2 0.2 -0.9
v 0.2 0.2 -0.9
v 0.3 0.2 -0.9
v 0.4 0.2 -0.9
v 0.5 0.2 -0.9
v -0.6 0.2 -1
v -0.5 0.2 -1
v 0.5 0.2 -1
v 0.6 0.2 -1
v -0.8 0.2 -1.1
v -0.6 0.2 -1.1
v -0.3 0.2 -1.1
v -0.2 0.2 -1.1
v -0.1 0.2 -1.1
v 0.1 0.2 -1.1
v 0.2 0.2 -1.1
v 0.3 0.2 -1.1
v 0.6 0.2 -1.1
v 0.8 0.2 -1.1
v -0.4 0.2 -1.2
v -0.3 0.2 -1.2
v -0.2 0.2 -1.2
v -0.1 0.2 -1.2
v 0.1 0.2 -1.2
v 0.2 0.2 -1.2
v 0.3 0.2 -1.2
v 0.4 0.2 -1.2
v -0.5 0.2 -1.3
v -0.4 0.2 -1.3
v -0.3 0.2 -1.3
v -0.2 0.2 -1.3
v 0.2 0.2 -1.3
v 0.3 0.2 -1.3
v 0.4 0.2 -1.3
v 0.5 0.2 -1.3
v -0.8 0.2 -1.4
v -0.5 0.2 -1.4
v -0.4 0.2 -1.4
v -0.3 0.2 -1.4
v 0.3 0.2 -1.4
v 0.4 0.2 -1.4
v 0.5 0.2 -1.4
v 0.8 0.2 -1.4
v -1.2 0.2 -1.6
v -1.1 0.2 -1.6
v -0.4 0.2 -1.6
v -0.3 0.2 -1.6
v 0.3 0.2 -1.6
v 0.4 0.2 -1.6
v 1.1 0.2 -1.6
v 1.2 0.2 -1.6
v -1.3 0.2 -1.7
v -1.2 0.2 -1.7
v -1.1 0.2 -1.7
v -0.3 0.2 -1.7
v 0.3 0.2 -1.7
v 1.1 0.2 -1.7
v 1.2 0.2 -1.7
v 1.3 0.2 -1.7
v -1.4 0.2 -1.8
v -1.3 0.2 -1.8
v -1.2 0.2 -1.8
v 1.2 0.2 -1.8
v 1.3 0.2 -1.8
v 1.4 0.2 -1.8
v -1.5 0.2 -1.9
v -1.4 0.2 -1.9
v -1.3 0.2 -1.9
v 1.3 0.2 -1.9
v 1.4 0.2 -1.9
v 1.5 0.2 -1.9
v -1.4 0.2 -2
v 1.4 0.2 -2

# faces
f 3/6/1 2/6/1 1/6/1
f 4/6/1 2/6/1 3/6/1
f 9/6/1 6/6/1 5/6/1
f 10/6/1 6/6/1 9/6/1
f 11/6/1 8/6/1 7/6/1
f 12/6/1 8/6/1 11/6/1
f 13/6/2 14/6/2 17/6/2
f 17/6/2 14/6/2 18/6/2
f 15/6/2 16/6/2 19/6/2
f 19/6/2 16/6/2 20/6/2
f 21/6/2 22/6/2 23/6/2
f 23/6/2 22/6/2 24/6/2
f 27/6/3 26/6/3 25/6/3
f 28/6/3 26/6/3 27/6/3
f 31/6/3 30/6/3 29/6/3
f 32/6/3 30/6/3 31/6/3
f 35/6/3 34/6/3 33/6/3
f 36/6/3 34/6/3 35/6/3
f 37/6/4 38/6/4 39/6/4
f 39/6/4 38/6/4 40/6/4
f 41/6/4 42/6/4 43/6/4
f 43/6/4 42/6/4 44/6/4
f 45/6/4 46/6/4 47/6/4
f 47/6/4 46/6/4 48/6/4
f 52/6/5 50/6/5 49/6/5
f 53/6/5 50/6/5 52/6/5
f 55/6/5 52/6/5 51/6/5
f 55/6/5 54/6/5 53/6/5
f 55/6/5 53/6/5 52/6/5
f 56/6/5 54/6/5 55/6/5
f 57/6/5 55/6/5 51/6/5
f 58/3/5 56/3/5 55/3/5
f 58/6/5 55/6/5 57/6/5
f 59/3/5 56/3/5 58/3/5
f 60/3/5 56/3/5 59/3/5
f 61/6/5 54/6/5 56/6/5
f 61/3/5 56/3/5 60/3/5
f 62/6/5 54/6/5 61/6/5
f 63/3/5 58/3/5 57/3/5
f 63/3/5 59/3/5 58/3/5
f 64/6/5 60/6/5 59/6/5
f 64/3/5 59/3/5 63/3/5
f 65/6/5 60/6/5 64/6/5
f 66/6/5 60/6/5 65/6/5
f 67/6/5 60/6/5 66/6/5
f 68/6/5 60/6/5 67/6/5
f 69/6/5 60/6/5 68/6/5
f 70/6/5 60/6/5 69/6/5
f 71/3/5 62/3/5 61/3/5
f 71/6/5 60/6/5 70/6/5
f 71/3/5 61/3/5 60/3/5
f 72/3/5 62/3/5 71/3/5
f 73/6/5 64/6/5 63/6/5
f 73/6/5 65/6/5 64/6/5
f 74/4/5 66/4/5 65/4/5
f 74/6/5 65/6/5 73/6/5
f 75/4/5 70/4/5 69/4/5
f 75/6/5 72/6/5 71/6/5
f 75/6/5 71/6/5 70/6/5
f 76/6/5 72/6/5 75/6/5
f 77/4/5 66/4/5 74/4/5
f 77/4/5 74/4/5 73/4/5
f 77/2/5 67/2/5 66/2/5
f 78/2/5 67/2/5 77/2/5
f 79/2/5 69/2/5 68/2/5
f 80/4/5 76/4/5 75/4/5
f 80/2/5 69/2/5 79/2/5
f 80/4/5 75/4/5 69/4/5
f 81/4/5 78/4/5 77/4/5
f 82/2/5 67/2/5 78/2/5
f 82/4/5 78/4/5 81/4/5
f 83/4/5 68/4/5 67/4/5
f 83/2/5 67/2/5 82/2/5
f 84/2/5 79/2/5 68/2/5
f 84/4/5 68/4/5 83/4/5
f 85/4/5 80/4/5 79/4/5
f 85/2/5 79/2/5 84/2/5
f 86/4/5 80/4/5 85/4/5
f 87/4/5 81/4/5 77/4/5
f 87/4/5 77/4/5 73/4/5
f 88/1/5 83/1/5 82/1/5
f 88/4/5 81/4/5 87/4/5
f 88/1/5 82/1/5 81/1/5
f 88/1/5 85/1/5 84/1/5
f 88/1/5 84/1/5 83/1/5
f 88/1/5 86/1/5 85/1/5
f 89/4/5 80/4/5 86/4/5
f 89/1/5 86/1/5 88/1/5
f 90/4/5 76/4/5 80/4/5
f 90/4/5 80/4/5 89/4/5
f 91/1/5 88/1/5 87/1/5
f 91/4/5 87/4/5 73/4/5
f 91/1/5 90/1/5 89/1/5
f 91/1/5 89/1/5 88/1/5
f 92/1/5 90/1/5 91/1/5
f 93/1/5 90/1/5 92/1/5
f 94/4/5 76/4/5 90/4/5
f 94/1/5 90/1/5 93/1/5
f 95/4/5 91/4/5 73/4/5
f 95/4/5 92/4/5 91/4/5
f 96/1/5 93/1/5 92/1/5
f 96/4/5 92/4/5 95/4/5
f 97/1/5 93/1/5 96/1/5
f 98/1/5 93/1/5 97/1/5
f 99/4/5 94/4/5 93/4/5
f 99/1/5 93/1/5 98/1/5
f 100/4/5 76/4/5 94/4/5
f 100/4/5 94/4/5 99/4/5
f 101/4/5 95/4/5 73/4/5
f 102/5/5 96/5/5 95/5/5
f 102/4/5 95/4/5 101/4/5
f 102/5/5 97/5/5 96/5/5
f 103/4/5 76/4/5 100/4/5
f 103/5/5 99/5/5 98/5/5
f 103/5/5 100/5/5 99/5/5
f 104/4/5 76/4/5 103/4/5
f 105/4/5 101/4/5 73/4/5
f 106/5/5 102/5/5 101/5/5
f 106/4/5 101/4/5 105/4/5
f 107/4/5 76/4/5 104/4/5
f 107/5/5 104/5/5 103/5/5
f 108/4/5 76/4/5 107/4/5
f 109/4/5 105/4/5 73/4/5
f 110/5/5 106/5/5 105/5/5
f 110/4/5 105/4/5 109/4/5
f 111/5/5 97/5/5 102/5/5
f 111/5/5 106/5/5 110/5/5
f 111/5/5 102/5/5 106/5/5
f 112/1/5 98/1/5 97/1/5
f 112/5/5 97/5/5 111/5/5
f 113/1/5 98/1/5 112/1/5
f 114/1/5 98/1/5 113/1/5
f 115/5/5 108/5/5 107/5/5
f 115/1/5 98/1/5 114/1/5
f 115/5/5 103/5/5 98/5/5
f 115/5/5 107/5/5 103/5/5
f 116/5/5 108/5/5 115/5/5
f 117/4/5 76/4/5 108/4/5
f 117/5/5 108/5/5 116/5/5
f 118/4/5 76/4/5 117/4/5
f 119/6/5 73/6/5 63/6/5
f 119/4/5 109/4/5 73/4/5
f 120/5/5 110/5/5 109/5/5
f 120/4/5 109/4/5 119/4/5
f 120/5/5 111/5/5 110/5/5
f 121/4/5 76/4/5 118/4/5
f 121/5/5 117/5/5 116/5/5
f 121/5/5 118/5/5 117/5/5
f 122/6/5 72/6/5 76/6/5
f 122/4/5 76/4/5 121/4/5
f 123/5/5 111/5/5 120/5/5
f 123/5/5 120/5/5 119/5/5
f 124/4/5 113/4/5 112/4/5
f 124/5/5 111/5/5 123/5/5
f 124/4/5 112/4/5 111/4/5
f 125/4/5 113/4/5 124/4/5
f 126/2/5 114/2/5 113/2/5
f 126/4/5 113/4/5 125/4/5
f 127/4/5 116/4/5 115/4/5
f 127/2/5 114/2/5 126/2/5
f 127/4/5 115/4/5 114/4/5
f 128/4/5 116/4/5 127/4/5
f 129/5/5 121/5/5 116/5/5
f 129/4/5 116/4/5 128/4/5
f 129/5/5 122/5/5 121/5/5
f 130/5/5 122/5/5 129/5/5
f 131/5/5 123/5/5 119/5/5
f 132/4/5 125/4/5 124/4/5
f 132/5/5 123/5/5 131/5/5
f 132/4/5 124/4/5 123/4/5
f 133/4/5 125/4/5 132/4/5
f 134/2/5 128/2/5 127/2/5
f 134/4/5 125/4/5 133/4/5
f 134/2/5 126/2/5 125/2/5
f 134/2/5 127/2/5 126/2/5
f 135/4/5 129/4/5 128/4/5
f 135/2/5 128/2/5 134/2/5
f 135/4/5 130/4/5 129/4/5
f 136/4/5 130/4/5 135/4/5
f 137/5/5 122/5/5 130/5/5
f 137/4/5 130/4/5 136/4/5
f 138/5/5 122/5/5 137/5/5
f 139/5/5 131/5/5 119/5/5
f 140/4/5 133/4/5 132/4/5
f 140/5/5 131/5/5 139/5/5
f 140/4/5 132/4/5 131/4/5
f 141/4/5 133/4/5 140/4/5
f 142/2/5 134/2/5 133/2/5
f 142/4/5 133/4/5 141/4/5
f 142/2/5 136/2/5 135/2/5
f 142/2/5 135/2/5 134/2/5
f 143/4/5 138/4/5 137/4/5
f 143/2/5 136/2/5 142/2/5
f 143/4/5 137/4/5 136/4/5
f 144/4/5 138/4/5 143/4/5
f 145/5/5 122/5/5 138/5/5
f 145/4/5 138/4/5 144/4/5
f 146/5/5 122/5/5 145/5/5
f 147/5/5 139/5/5 119/5/5
f 147/6/5 119/6/5 63/6/5
f 148/4/5 141/4/5 140/4/5
f 148/5/5 139/5/5 147/5/5
f 148/4/5 140/4/5 139/4/5
f 149/5/5 122/5/5 146/5/5
f 149/4/5 146/4/5 145/4/5
f 149/4/5 145/4/5 144/4/5
f 150/6/5 72/6/5 122/6/5
f 150/5/5 122/5/5 149/5/5
f 151/4/5 141/4/5 148/4/5
f 151/4/5 148/4/5 147/4/5
f 151/2/5 142/2/5 141/2/5
f 151/2/5 143/2/5 142/2/5
f 151/2/5 144/2/5 143/2/5
f 152/2/5 144/2/5 151/2/5
f 153/2/5 144/2/5 152/2/5
f 154/4/5 150/4/5 149/4/5
f 154/2/5 144/2/5 153/2/5
f 154/4/5 149/4/5 144/4/5
f 155/2/5 153/2/5 152/2/5
f 155/4/5 152/4/5 151/4/5
f 156/2/5 153/2/5 155/2/5
f 157/2/5 153/2/5 156/2/5
f 158/4/5 154/4/5 153/4/5
f 158/2/5 153/2/5 157/2/5
f 159/2/5 157/2/5 156/2/5
f 159/4/5 156/4/5 155/4/5
f 160/4/5 158/4/5 157/4/5
f 160/2/5 157/2/5 159/2/5
f 161/6/5 147/6/5 63/6/5
f 161/4/5 151/4/5 147/4/5
f 161/4/5 160/4/5 159/4/5
f 161/4/5 159/4/5 155/4/5
f 161/4/5 155/4/5 151/4/5
f 162/4/5 160/4/5 161/4/5
f 163/4/5 150/4/5 154/4/5
f 163/4/5 160/4/5 162/4/5
f 163/4/5 154/4/5 158/4/5
f 163/4/5 158/4/5 160/4/5
f 164/6/5 72/6/5 150/6/5
f 164/4/5 150/4/5 163/4/5
f 165/3/5 63/3/5 57/3/5
f 165/6/5 162/6/5 161/6/5
f 165/6/5 161/6/5 63/6/5
f 166/6/5 162/6/5 165/6/5
f 167/4/5 163/4/5 162/4/5
f 167/6/5 162/6/5 166/6/5
f 168/6/5 164/6/5 163/6/5
f 168/4/5 163/4/5 167/4/5
f 169/6/5 72/6/5 164/6/5
f 169/6/5 164/6/5 168/6/5
f 170/3/5 62/3/5 72/3/5
f 170/6/5 72/6/5 169/6/5
f 171/6/5 57/6/5 51/6/5
f 171/3/5 166/3/5 165/3/5
f 171/3/5 165/3/5 57/3/5
f 172/3/5 166/3/5 171/3/5
f 173/6/5 168/6/5 167/6/5
f 173/3/5 166/3/5 172/3/5
f 173/6/5 167/6/5 166/6/5
f 173/6/5 169/6/5 168/6/5
f 174/3/5 170/3/5 169/3/5
f 174/6/5 169/6/5 173/6/5
f 175/3/5 62/3/5 170/3/5
f 175/3/5 170/3/5 174/3/5
f 176/6/5 54/6/5 62/6/5
f 176/3/5 62/3/5 175/3/5
f 177/6/5 172/6/5 171/6/5
f 177/3/5 174/3/5 173/3/5
f 177/3/5 175/3/5 174/3/5
f 177/3/5 173/3/5 172/3/5
f 178/6/5 176/6/5 175/6/5
f 178/3/5 175/3/5 177/3/5
f 179/6/5 177/6/5 171/6/5
f 179/6/5 171/6/5 51/6/5
f 179/6/5 178/6/5 177/6/5
f 180/6/5 178/6/5 179/6/5
f 181/6/5 54/6/5 176/6/5
f 181/6/5 178/6/5 180/6/5
f 181/6/5 176/6/5 178/6/5
f 182/6/5 54/6/5 181/6/5
f 183/6/5 181/6/5 180/6/5
f 184/6/5 181/6/5 183/6/5
f 185/6/6 186/6/6 188/6/6
f 188/6/6 186/6/6 189/6/6
f 189/6/6 186/6/6 190/6/6
f 190/6/6 186/6/6 191/6/6
f 187/6/6 188/6/6 193/6/6
f 188/6/6 189/6/6 193/6/6
f 189/3/6 190/3/6 194/3/6
f 193/6/6 189/6/6 194/6/6
f 194/3/6 190/3/6 195/3/6
f 195/3/6 190/3/6 196/3/6
f 191/6/6 192/6/6 197/6/6
f 196/3/6 190/3/6 197/3/6
f 190/6/6 191/6/6 197/6/6
f 197/6/6 192/6/6 198/6/6
f 194/3/6 195/3/6 199/3/6
f 193/3/6 194/3/6 199/3/6
f 195/6/6 196/6/6 200/6/6
f 199/3/6 195/3/6 200/3/6
f 197/3/6 198/3/6 201/3/6
f 200/6/6 196/6/6 201/6/6
f 196/3/6 197/3/6 201/3/6
f 201/3/6 198/3/6 202/3/6
f 199/6/6 200/6/6 203/6/6
f 200/6/6 201/6/6 203/6/6
f 201/6/6 202/6/6 203/6/6
f 203/6/6 202/6/6 204/6/6
f 204/6/6 202/6/6 205/6/6
f 205/6/6 202/6/6 206/6/6
f 206/6/6 202/6/6 207/6/6
f 207/6/6 202/6/6 208/6/6
f 203/4/6 204/4/6 209/4/6
f 204/2/6 205/2/6 209/2/6
f 209/2/6 205/2/6 210/2/6
f 206/2/6 207/2/6 211/2/6
f 207/4/6 208/4/6 212/4/6
f 211/2/6 207/2/6 212/2/6
f 210/2/6 205/2/6 213/2/6
f 209/4/6 210/4/6 213/4/6
f 205/4/6 206/4/6 214/4/6
f 213/2/6 205/2/6 214/2/6
f 206/2/6 211/2/6 215/2/6
f 214/4/6 206/4/6 215/4/6
f 211/4/6 212/4/6 216/4/6
f 215/2/6 211/2/6 216/2/6
f 209/4/6 213/4/6 217/4/6
f 203/4/6 209/4/6 217/4/6
f 213/1/6 214/1/6 218/1/6
f 217/4/6 213/4/6 218/4/6
f 215/1/6 216/1/6 218/1/6
f 214/1/6 215/1/6 218/1/6
f 216/4/6 212/4/6 219/4/6
f 218/1/6 216/1/6 219/1/6
f 212/4/6 208/4/6 220/4/6
f 219/4/6 212/4/6 220/4/6
f 203/4/6 217/4/6 221/4/6
f 217/1/6 218/1/6 221/1/6
f 219/1/6 220/1/6 221/1/6
f 218/1/6 219/1/6 221/1/6
f 221/1/6 220/1/6 222/1/6
f 222/1/6 220/1/6 223/1/6
f 220/4/6 208/4/6 224/4/6
f 223/1/6 220/1/6 224/1/6
f 203/4/6 221/4/6 225/4/6
f 221/4/6 222/4/6 225/4/6
f 222/1/6 223/1/6 226/1/6
f 225/4/6 222/4/6 226/4/6
f 223/4/6 224/4/6 227/4/6
f 226/1/6 223/1/6 227/1/6
f 224/4/6 208/4/6 228/4/6
f 227/4/6 224/4/6 228/4/6
f 203/4/6 225/4/6 229/4/6
f 225/5/6 226/5/6 230/5/6
f 229/4/6 225/4/6 230/4/6
f 226/1/6 227/1/6 231/1/6
f 230/5/6 226/5/6 231/5/6
f 231/1/6 227/1/6 232/1/6
f 232/1/6 227/1/6 233/1/6
f 227/5/6 228/5/6 234/5/6
f 233/1/6 227/1/6 234/1/6
f 228/4/6 208/4/6 235/4/6
f 234/5/6 228/5/6 235/5/6
f 235/4/6 208/4/6 236/4/6
f 203/4/6 229/4/6 237/4/6
f 229/5/6 230/5/6 238/5/6
f 237/4/6 229/4/6 238/4/6
f 230/5/6 231/5/6 238/5/6
f 231/5/6 232/5/6 238/5/6
f 233/5/6 234/5/6 239/5/6
f 236/4/6 208/4/6 239/4/6
f 235/5/6 236/5/6 239/5/6
f 234/5/6 235/5/6 239/5/6
f 239/4/6 208/4/6 240/4/6
f 203/4/6 237/4/6 241/4/6
f 237/5/6 238/5/6 242/5/6
f 241/4/6 237/4/6 242/4/6
f 238/5/6 232/5/6 243/5/6
f 242/5/6 238/5/6 243/5/6
f 232/1/6 233/1/6 244/1/6
f 243/5/6 232/5/6 244/5/6
f 244/1/6 233/1/6 245/1/6
f 245/1/6 233/1/6 246/1/6
f 233/5/6 239/5/6 247/5/6
f 246/1/6 233/1/6 247/1/6
f 239/5/6 240/5/6 247/5/6
f 247/5/6 240/5/6 248/5/6
f 240/4/6 208/4/6 249/4/6
f 248/5/6 240/5/6 249/5/6
f 249/4/6 208/4/6 250/4/6
f 241/5/6 242/5/6 251/5/6
f 242/5/6 243/5/6 251/5/6
f 244/4/6 245/4/6 252/4/6
f 251/5/6 243/5/6 252/5/6
f 243/4/6 244/4/6 252/4/6
f 252/4/6 245/4/6 253/4/6
f 245/2/6 246/2/6 254/2/6
f 253/4/6 245/4/6 254/4/6
f 247/4/6 248/4/6 255/4/6
f 254/2/6 246/2/6 255/2/6
f 246/4/6 247/4/6 255/4/6
f 255/4/6 248/4/6 256/4/6
f 249/5/6 250/5/6 257/5/6
f 256/4/6 248/4/6 257/4/6
f 248/5/6 249/5/6 257/5/6
f 257/5/6 250/5/6 258/5/6
f 241/5/6 251/5/6 259/5/6
f 252/4/6 253/4/6 260/4/6
f 259/5/6 251/5/6 260/5/6
f 251/4/6 252/4/6 260/4/6
f 260/4/6 253/4/6 261/4/6
f 253/2/6 254/2/6 262/2/6
f 261/4/6 253/4/6 262/4/6
f 255/2/6 256/2/6 262/2/6
f 254/2/6 255/2/6 262/2/6
f 256/4/6 257/4/6 263/4/6
f 262/2/6 256/2/6 263/2/6
f 257/4/6 258/4/6 263/4/6
f 263/4/6 258/4/6 264/4/6
f 258/5/6 250/5/6 265/5/6
f 264/4/6 258/4/6 265/4/6
f 265/5/6 250/5/6 266/5/6
f 203/4/6 241/4/6 267/4/6
f 241/5/6 259/5/6 267/5/6
f 260/4/6 261/4/6 268/4/6
f 267/5/6 259/5/6 268/5/6
f 259/4/6 260/4/6 268/4/6
f 268/4/6 261/4/6 269/4/6
f 263/2/6 264/2/6 270/2/6
f 269/4/6 261/4/6 270/4/6
f 261/2/6 262/2/6 270/2/6
f 262/2/6 263/2/6 270/2/6
f 264/4/6 265/4/6 271/4/6
f 270/2/6 264/2/6 271/2/6
f 265/4/6 266/4/6 271/4/6
f 271/4/6 266/4/6 272/4/6
f 266/5/6 250/5/6 273/5/6
f 272/4/6 266/4/6 273/4/6
f 250/4/6 208/4/6 274/4/6
f 273/5/6 250/5/6 274/5/6
f 199/6/6 203/6/6 275/6/6
f 203/4/6 267/4/6 275/4/6
f 267/4/6 268/4/6 275/4/6
f 268/4/6 269/4/6 275/4/6
f 275/4/6 269/4/6 276/4/6
f 271/2/6 272/2/6 277/2/6
f 276/4/6 269/4/6 277/4/6
f 269/2/6 270/2/6 277/2/6
f 270/2/6 271/2/6 277/2/6
f 277/2/6 272/2/6 278/2/6
f 278/2/6 272/2/6 279/2/6
f 272/4/6 273/4/6 280/4/6
f 279/2/6 272/2/6 280/2/6
f 273/4/6 274/4/6 280/4/6
f 274/4/6 208/4/6 281/4/6
f 280/4/6 274/4/6 281/4/6
f 208/6/6 202/6/6 282/6/6
f 281/4/6 208/4/6 282/4/6
f 193/3/6 199/3/6 283/3/6
f 275/6/6 276/6/6 283/6/6
f 199/6/6 275/6/6 283/6/6
f 283/6/6 276/6/6 284/6/6
f 277/4/6 278/4/6 285/4/6
f 284/6/6 276/6/6 285/6/6
f 276/4/6 277/4/6 285/4/6
f 278/2/6 279/2/6 286/2/6
f 285/4/6 278/4/6 286/4/6
f 279/4/6 280/4/6 287/4/6
f 286/2/6 279/2/6 287/2/6
f 280/4/6 281/4/6 287/4/6
f 281/6/6 282/6/6 288/6/6
f 287/4/6 281/4/6 288/4/6
f 282/6/6 202/6/6 289/6/6
f 288/6/6 282/6/6 289/6/6
f 202/3/6 198/3/6 290/3/6
f 289/6/6 202/6/6 290/6/6
f 187/6/6 193/6/6 291/6/6
f 193/3/6 283/3/6 291/3/6
f 283/3/6 284/3/6 291/3/6
f 291/3/6 284/3/6 292/3/6
f 287/6/6 288/6/6 293/6/6
f 292/3/6 284/3/6 293/3/6
f 288/6/6 289/6/6 293/6/6
f 285/6/6 286/6/6 293/6/6
f 286/6/6 287/6/6 293/6/6
f 284/6/6 285/6/6 293/6/6
f 289/3/6 290/3/6 294/3/6
f 293/6/6 289/6/6 294/6/6
f 290/3/6 198/3/6 295/3/6
f 294/3/6 290/3/6 295/3/6
f 198/6/6 192/6/6 296/6/6
f 295/3/6 198/3/6 296/3/6
f 291/6/6 292/6/6 297/6/6
f 187/6/6 291/6/6 297/6/6
f 297/6/6 292/6/6 298/6/6
f 294/3/6 295/3/6 299/3/6
f 298/6/6 292/6/6 299/6/6
f 293/3/6 294/3/6 299/3/6
f 292/3/6 293/3/6 299/3/6
f 295/6/6 296/6/6 300/6/6
f 299/3/6 295/3/6 300/3/6
f 296/6/6 192/6/6 301/6/6
f 300/6/6 296/6/6 301/6/6
f 301/6/6 192/6/6 302/6/6
f 299/6/6 300/6/6 303/6/6
f 300/6/6 301/6/6 303/6/6
f 298/6/6 299/6/6 303/6/6
f 303/6/6 301/6/6 304/6/6
